<?xml version="1.0" encoding="UTF-8"?> <svg xmlns="http://www.w3.org/2000/svg" width="246" height="30" viewBox="0 0 246 30" fill="none"><path d="M105.832 20.3641V23.5804H93V2.1731H105.488V5.38943H96.5778V10.9573H103.458V14.0699H96.5778V20.3641H105.832Z" fill="white"></path><path d="M121.52 12.5482L127.884 23.5804H123.893L119.696 15.7991H119.559L115.362 23.5804H111.371L117.735 12.5828L111.818 2.1731H115.878L119.559 9.19358H119.765L123.412 2.1731H127.471L121.52 12.5482Z" fill="white"></path><path d="M147.324 20.3641V23.5804H134.492V2.1731H146.98V5.38943H138.07V10.9573H144.951V14.0699H138.07V20.3641H147.324Z" fill="white"></path><path d="M165.725 13.8277V11.5797C165.679 10.058 165.593 8.89408 165.467 8.08669C165.341 7.28004 165.083 6.63421 164.693 6.15001C164.303 5.6659 163.839 5.36053 163.3 5.23364C162.761 5.1071 161.964 5.032 160.909 5.00884C159.923 5.00884 159.017 5.05529 158.191 5.14709V20.5715C159.452 20.6639 160.484 20.7098 161.287 20.7098C162.526 20.7098 163.432 20.5834 164.005 20.3295C165.152 19.776 165.725 17.6092 165.725 13.8277ZM169.303 11.476V13.8277C169.303 17.2633 168.833 19.788 167.893 21.4015C167.48 22.1164 166.895 22.6585 166.138 23.0269C165.014 23.5803 163.397 23.8569 161.287 23.8569C159.315 23.8569 157.09 23.73 154.613 23.4766V2.38047C157.136 2.12702 159.189 2 160.771 2C161.849 2 162.709 2.03461 163.352 2.10373C165.141 2.24197 166.413 2.69168 167.17 3.45246C168.592 4.88241 169.303 7.55668 169.303 11.476Z" fill="white"></path><path d="M180.793 5.14731V12.2023H183.51C184.978 12.2023 185.964 11.949 186.469 11.4415C186.996 10.9114 187.26 9.86256 187.26 8.29441C187.26 7.00343 187.02 6.12755 186.538 5.66614C186.079 5.22835 185.127 5.00894 183.683 5.00894C182.604 5.00894 181.641 5.05549 180.793 5.14728L180.793 5.14731ZM187.811 14.3811L191.87 23.5804H187.88L184.646 14.9692H180.793V23.5804H177.215V2.38072C179.99 2.12727 182.226 2.00024 183.923 2.00024C186.538 2.00024 188.338 2.3579 189.324 3.07226C190.425 3.83318 190.976 5.52778 190.976 8.15619C190.976 11.4994 189.921 13.5745 187.811 14.3811L187.811 14.3811Z" fill="white"></path><path d="M202.605 23.5804H199.027V2.1731H202.605V23.5804Z" fill="white"></path><path d="M225.76 2.1731L220.29 23.5804H214.751L209.453 2.1731H213.168L217.331 20.1912H217.778L222.044 2.1731H225.76Z" fill="white"></path><path d="M245.402 20.3641V23.5804H232.57V2.1731H245.058V5.38943H236.148V10.9573H243.029V14.0699H236.148V20.3641H245.402Z" fill="white"></path><path d="M45.0312 4.65844L68.7357 0L73.1914 1.79167L56 8.40725L48.9523 12.9002L45.061 11.4346L45.0312 4.65844Z" fill="#FFAB09"></path><path d="M4.54558 0.0759277L28.25 4.73432L28.2194 11.5105L24.3281 12.9761L0 8.40725L0.0891043 1.86768L4.54558 0.0759277Z" fill="#FFAB09"></path><path d="M73.1954 1.79175L48.8672 6.36057L48.9563 12.9003L73.2845 8.33141L73.1954 1.79175Z" fill="#FFAB09"></path><path fill-rule="evenodd" clip-rule="evenodd" d="M16.0399 24.8682L36.8202 29.0938L36.8359 29.1385L57.6294 24.8385L57.7482 18.03L40.186 21.4067L36.7752 20.3157L33.1151 21.4984L15.9805 18L16.0399 24.8682Z" fill="#F90A0F"></path><path d="M36.8952 22.0539C36.8943 24.3333 36.8934 26.6128 36.8928 28.8923L16.0399 24.6519L15.9805 17.7837C22.952 19.2072 29.9237 20.6306 36.8952 22.0539Z" fill="#F90A0F"></path><path d="M57.6294 24.6222C57.6689 22.3528 57.7086 20.0832 57.7482 17.8137L36.8954 22.054L36.8359 28.9222C43.7671 27.4889 50.6982 26.0554 57.6294 24.6222H57.6294Z" fill="#F90A0F"></path><path d="M32.8516 14.3796L36.832 13.0657L36.7726 20.113L32.8516 21.3672V14.3796Z" fill="#03246E"></path><path d="M8.4375 9.96021V16.2311L32.8547 21.3673V14.3797L8.4375 9.96021Z" fill="#034480"></path><path d="M36.8352 13.0656C29.0329 11.6123 21.2303 10.1591 13.428 8.70581C11.7645 9.12394 10.101 9.54193 8.4375 9.96006L32.8548 14.3795L36.8352 13.0656V13.0656Z" fill="#0570E6"></path><path d="M24.4173 6.43641L0.0891043 1.86768L0 8.40725L24.3281 12.9761L24.4173 6.43641Z" fill="#FFAB09"></path><path d="M28.2491 4.73438C28.2392 6.99305 28.2292 9.25185 28.2194 11.5105C26.9224 11.999 25.6251 12.4876 24.3281 12.9761L24.4171 6.43643L28.2491 4.73438H28.2491Z" fill="#FD7F00"></path><path d="M4.54558 0.0759277L28.25 4.73432L24.4181 6.43642L0.0898438 1.8676L4.54558 0.0759277Z" fill="#FFB82A"></path><path d="M40.6992 14.3659L36.7188 13.052L36.7782 20.0993L40.6992 21.3535V14.3659Z" fill="#03246E"></path><path d="M65.1126 9.94653V16.2174L40.6953 21.3536V14.366L65.1126 9.94653Z" fill="#034480"></path><path d="M36.7188 13.052C44.5211 11.5987 52.3237 10.1454 60.1261 8.69214C61.7895 9.11027 63.4531 9.5284 65.1165 9.94639L40.6992 14.3658L36.7188 13.052V13.052Z" fill="#0570E6"></path><path d="M48.8672 6.36057L73.1954 1.79175L73.2845 8.33141L48.9563 12.9003L48.8672 6.36057Z" fill="#FFAB09"></path><path d="M45.0313 4.65845C45.0411 6.91715 45.0511 9.17583 45.061 11.4346C46.358 11.9232 47.6553 12.4117 48.9523 12.9002L48.8633 6.36054L45.0312 4.65845H45.0313Z" fill="#FD7F00"></path><path d="M68.7357 0L45.0312 4.65844L48.8632 6.36054L73.1914 1.79167L68.7357 0Z" fill="#FFB82A"></path><path d="M36.7752 20.0994L32.8516 21.3673L36.8939 22.0541L40.6962 21.3536L36.7752 20.0994Z" fill="#9E0D14"></path></svg> 